<?xml version="1.0" encoding="UTF-8" standalone="no"?>
<!-- Created with Inkscape (http://www.inkscape.org/) -->

<svg
   version="1.1"
   id="svg1"
   width="1536"
   height="1024"
   viewBox="0 0 1536 1024"
   sodipodi:docname="ChatGPT Image Feb 6, 2026, 09_36_01 PM.png"
   inkscape:version="1.4 (86a8ad7, 2024-10-11)"
   xmlns:inkscape="http://www.inkscape.org/namespaces/inkscape"
   xmlns:sodipodi="http://sodipodi.sourceforge.net/DTD/sodipodi-0.dtd"
   xmlns="http://www.w3.org/2000/svg"
   xmlns:svg="http://www.w3.org/2000/svg">
  <defs
     id="defs1" />
  <sodipodi:namedview
     id="namedview1"
     pagecolor="#ffffff"
     bordercolor="#000000"
     borderopacity="0.25"
     inkscape:showpageshadow="2"
     inkscape:pageopacity="0.0"
     inkscape:pagecheckerboard="0"
     inkscape:deskcolor="#d1d1d1"
     showgrid="false"
     inkscape:zoom="0.79589844"
     inkscape:cx="768.31411"
     inkscape:cy="512"
     inkscape:window-width="1920"
     inkscape:window-height="1017"
     inkscape:window-x="-8"
     inkscape:window-y="-8"
     inkscape:window-maximized="1"
     inkscape:current-layer="g1" />
  <g
     inkscape:groupmode="layer"
     inkscape:label="Image"
     id="g1">
    <path
       style="fill:#000000"
       d="m 818.37873,647.3184 c -33.2096,-2.11372 -81.80371,-9.26936 -148.50756,-21.86824 -30.97947,-5.85134 -49.60269,-8.48645 -109.75707,-15.5302 -77.72777,-9.10149 -113.15053,-17.37469 -140.04804,-32.70906 -9.2938,-5.29842 -20.91068,-15.9834 -24.38013,-22.42436 -6.98139,-12.96077 -6.138,-32.70299 2.25871,-52.87282 1.67455,-4.02244 4.16451,-8.52189 5.53323,-9.99877 2.47495,-2.67051 2.48314,-2.74369 1.49373,-13.34055 -1.63314,-17.49118 0.71869,-46.27863 5.45,-66.71052 3.02467,-13.06189 8.61461,-28.93594 14.41263,-40.92829 4.56724,-9.44667 5.91302,-13.33062 6.32482,-18.25357 0.71379,-8.53311 4.81364,-15.743 11.22264,-19.73584 4.41555,-2.75091 5.66557,-3.01909 15.6684,-3.36146 22.59843,-0.77349 46.69435,4.68298 117.82108,26.68035 17.875,5.5282 35.65,10.93411 39.5,12.01314 3.85,1.07902 15.325,4.47078 25.5,7.53723 10.175,3.06646 26.30696,7.39304 35.84881,9.61462 l 17.34881,4.03924 5.65119,-3.16428 c 3.10815,-1.74035 9.8642,-6.36044 15.01345,-10.26686 22.35748,-16.96126 25.20613,-18.58435 32.6377,-18.59621 5.0948,-0.008 14.3163,5.15985 39.6294,22.20928 78.7475,53.03986 125.8237,72.9326 217.31917,91.83151 33.8471,6.99131 49.4929,13.34811 61.3705,24.93443 3.1303,3.05351 7.0391,8.13076 8.6862,11.28276 1.6973,3.24807 3.6718,5.73193 4.5576,5.73328 3.732,0.006 11.309,11.33256 16.1809,24.18878 2.9733,7.84608 3.1534,9.10089 3.2033,22.3136 0.051,13.47876 -0.055,14.22049 -2.8512,19.92227 -3.8728,7.89763 -15.5431,19.95317 -26.7383,27.6209 -9.954,6.81762 -31.1054,17.29938 -43.2199,21.41802 -26.51547,9.01455 -66.00437,16.17926 -102.13767,18.53141 -17.6618,1.14973 -86.3316,1.07792 -104.9924,-0.10979 z m 89.9924,-29.91231 c 54.6525,-2.67143 98.87937,-12.10717 130.47527,-27.83673 13.5064,-6.72399 19.9766,-11.03229 27.8557,-18.5484 7.5457,-7.1979 10.5896,-13.39835 10.5967,-21.58537 0.01,-6.15613 -2.7374,-17 -4.2998,-17 -0.3913,0 -2.7177,2.05645 -5.1697,4.5699 -23.3495,23.93455 -72.74757,40.96523 -136.34027,47.00526 -22.0346,2.09285 -92.3689,1.48642 -113.6179,-0.97962 -36.5698,-4.24409 -60.1959,-8.07313 -108.49996,-17.5844 -46.67399,-9.19031 -107.74049,-19.18904 -131.5,-21.53117 -3.575,-0.35241 -17.525,-1.94202 -31,-3.53246 -73.39409,-8.66262 -109.22277,-17.91433 -128.35815,-33.14476 -4.44098,-3.53471 -4.95749,-3.18332 -6.60949,4.49647 -1.41922,6.59764 -1.29433,11.45566 0.44511,17.31296 5.16852,17.40432 34.10568,31.61051 83.40766,40.94754 19.75584,3.74145 29.60463,5.07523 84.61487,11.45904 51.65551,5.9945 72.91628,9.34003 136.5,21.47924 37.52726,7.16459 84.36876,12.77214 123.99996,14.84444 14.2272,0.74393 48.5392,0.55487 67.5,-0.37194 z m -38.3484,-13.84564 c -0.7416,-0.47548 -1.1868,-1.7106 -0.9894,-2.74469 0.3056,-1.60039 1.4385,-1.92394 7.6129,-2.17427 6.058,-0.24562 7.3607,-0.0157 7.9019,1.3946 0.3915,1.02034 0,2.16382 -0.9937,2.88914 -1.9435,1.42114 -11.5989,1.8744 -13.5317,0.63522 z m -33.1073,-1.57147 c -0.6974,-0.84036 -0.9848,-2.26602 -0.6386,-3.16814 0.5396,-1.4061 1.6607,-1.53859 7.8551,-0.92822 6.837,0.67371 9.107,1.76715 8.393,4.04297 -0.1726,0.55 -3.47,1.13079 -7.3276,1.29065 -5.3364,0.22115 -7.3171,-0.0747 -8.2819,-1.23726 z m 68.3836,-0.26843 c -2.607,-2.60696 0.1973,-4.0658 8.5449,-4.44527 6.3698,-0.28955 7.5227,-0.0913 7.8104,1.34284 0.4529,2.25798 -2.1276,3.43177 -9.0339,4.1091 -4.4486,0.4363 -6.1064,0.20835 -7.3214,-1.00667 z m -100.2521,-1.34359 c -1.461,-0.58575 -2.1934,-1.58359 -1.9719,-2.68661 0.2962,-1.47508 1.4286,-1.74185 7.1053,-1.67372 7.0132,0.0842 9.3817,1.17608 8.355,3.85174 -0.6861,1.78795 -9.4712,2.1192 -13.4884,0.50859 z m 135.0742,-0.65851 c -0.6875,-0.24724 -1.25,-1.29469 -1.25,-2.32765 0,-1.96449 4.4192,-3.64584 10.5,-3.99492 5.0995,-0.29274 5.6537,-0.0603 5.3196,2.2306 -0.2175,1.49126 -1.2776,2.4157 -3.3196,2.89488 -4.8711,1.14307 -9.9094,1.67919 -11.25,1.19709 z m -164.1335,-2.31466 c -5.1389,-0.74672 -7.4809,-2.29824 -6.7447,-4.4682 0.5198,-1.5323 13.8654,-0.68261 15.5423,0.98955 1.1589,1.15555 1.1819,1.68988 0.1276,2.96026 -0.7076,0.8526 -1.794,1.49405 -2.4141,1.42543 -0.6202,-0.0686 -3.5502,-0.47678 -6.5111,-0.90704 z m 195.2194,-4.53542 c -0.8682,-2.26228 0.3849,-3.07767 7.5626,-4.92114 5.2894,-1.35851 6.6264,-1.41527 7.7138,-0.32749 2.0542,2.05489 0.221,3.77587 -5.7009,5.35193 -6.9447,1.84827 -8.8345,1.82789 -9.5755,-0.1033 z m -229.83586,-0.78245 c -4.11014,-0.95165 -5.06042,-1.58451 -5.33946,-3.55592 -0.33904,-2.39523 -0.33026,-2.39739 6.99394,-1.71667 8.09738,0.75257 11.06598,2.4468 8.88718,5.07207 -1.4785,1.78152 -3.5437,1.8208 -10.54166,0.20052 z m -35.34265,-5.62239 c -4.09817,-0.99705 -5.6129,-2.39843 -4.82152,-4.46073 0.71252,-1.85681 2.18877,-1.8906 10.16417,-0.23263 4.86706,1.01179 6,1.61722 6,3.20636 0,1.59047 -0.75259,1.99115 -4,2.12965 -2.2,0.0938 -5.5042,-0.19537 -7.34265,-0.64265 z m 297.56248,-0.64139 c -0.3959,-0.39594 -0.7199,-1.50357 -0.7199,-2.46142 0,-2.35923 11.6628,-6.44987 13.661,-4.79149 2.2212,1.8434 1.5578,2.84364 -3.2538,4.90613 -5.9497,2.55034 -8.7945,3.23952 -9.6873,2.34678 z m -334.21983,-6.06772 c -6.40625,-1.43872 -8.5,-2.55727 -8.5,-4.54099 0,-1.93492 0.39953,-2.0275 6.25,-1.44832 9.47272,0.93778 13.75,2.40526 13.75,4.71748 0,1.6795 -0.66518,1.93675 -4.75,1.837 -2.6125,-0.0638 -5.65,-0.31813 -6.75,-0.56517 z m -35.85009,-6.36787 c -6.7907,-1.13942 -7.64991,-1.59516 -7.64991,-4.05767 0,-2.07942 0.28021,-2.14102 6.75,-1.48388 7.04888,0.71596 9.94283,2.3427 8.91812,5.01305 -0.65825,1.71538 -0.86386,1.72893 -8.01821,0.5285 z m -35.8238,-4.67489 c -4.34036,-0.45806 -6.63861,-2.59215 -4.96424,-4.60965 0.77515,-0.93399 2.83432,-1.20123 6.87245,-0.89188 6.15467,0.47148 8.91574,2.08902 7.9338,4.64792 -0.60324,1.57202 -1.93785,1.68777 -9.84201,0.85361 z m -27.12696,-3.24192 c -7.89295,-1.52808 -7.37937,-5.03415 0.73742,-5.03415 6.03785,0 8.75309,1.86161 6.56343,4.5 -1.34424,1.6197 -1.59786,1.63826 -7.30085,0.53415 z m -32.37653,-3.73037 c -2.73363,-0.53213 -4.72357,-2.84602 -3.77187,-4.3859 0.87935,-1.42282 13.09976,-0.66736 14.67428,0.90715 0.57229,0.57229 0.7699,1.74578 0.43913,2.60775 -0.59142,1.54123 -5.83127,1.94364 -11.34154,0.871 z m -29.55485,-4.70315 c -6.48493,-1.3935 -7.25765,-1.88166 -6.4227,-4.05751 0.9077,-2.36541 12.24763,-1.35042 14.93481,1.33676 1.01784,1.01784 -0.69548,4.23087 -2.15233,4.03631 -0.34515,-0.0461 -3.20706,-0.6381 -6.35978,-1.31556 z m -33.26406,-7.3944 c -4.96875,-1.69683 -7.01439,-4.41256 -4.15135,-5.51121 1.66219,-0.63784 12.55112,1.9975 14.33819,3.47013 1.88571,1.55391 0.35012,3.83906 -2.54754,3.79108 -1.45366,-0.0241 -4.89134,-0.81158 -7.6393,-1.75 z m -26.54537,-8.75642 c -1.06099,-1.27842 -1.00531,-1.83142 0.31758,-3.15431 1.47216,-1.47216 1.82022,-1.46253 4.23102,0.11709 2.11886,1.38833 2.39688,1.99837 1.43753,3.15431 -1.55998,1.87966 -4.37466,1.82461 -5.98613,-0.11709 z m -13.13957,-4.96773 c -5.61139,-2.93743 -6.5399,-4.18953 -4.56861,-6.16082 1.31574,-1.31574 2.14044,-1.11792 7.16788,1.71939 3.78044,2.13355 5.57701,3.74653 5.37003,4.82129 -0.47001,2.44054 -2.79299,2.32981 -7.9693,-0.37986 z m 493.68119,37.93325 c 57.5493,-4.77555 107.07367,-20.76677 129.24057,-41.73126 5.4835,-5.18614 11.0278,-13.24902 9.8916,-14.38519 -0.3359,-0.33592 -3.2031,1.38992 -6.3715,3.83521 -14.65,11.30656 -30.5793,19.43274 -51.8047,26.4278 -35.84527,11.81324 -64.53447,16.18453 -112.45597,17.1346 -66.3693,1.31582 -107.2608,-6.45526 -146,-27.74603 -11.07966,-6.08933 -15.89376,-9.39094 -41.49996,-28.46155 -28.35316,-21.11644 -50.31004,-35.34238 -52.47945,-34.00162 -0.58856,0.36375 -0.94646,0.12571 -0.79533,-0.52898 0.15113,-0.65469 -1.30022,-2.11141 -3.22522,-3.23716 -6.02556,-3.52375 -34.55688,-18.85255 -58,-31.1612 -12.375,-6.4974 -27.675,-14.63304 -34,-18.07919 -6.325,-3.44616 -13.525,-7.27297 -16,-8.50403 -7.7721,-3.86582 -38.97874,-21.92275 -51.5,-29.79916 -21.55732,-13.56048 -40.98784,-28.77552 -46.59947,-36.48964 l -2.77309,-3.81208 -1.66394,2.5395 c -1.64983,2.51795 -3.39376,8.50059 -3.43965,11.79985 -0.0622,4.47143 14.54767,16.78392 39.47517,33.26777 23.85532,15.77486 47.47425,29.0659 123.00098,69.21618 13.1766,7.00473 15.64941,8.38084 42.8323,23.83598 27.20931,15.47016 45.63927,27.22344 79.6677,50.80623 28.70226,19.89157 37.81156,26.52171 39.90586,29.04516 0.6863,0.82697 3.5757,1.98255 6.421,2.56794 15.9414,3.2799 68.5023,8.7671 89.1731,9.30941 18.4633,0.4844 51.5768,-0.40272 69,-1.84854 z m -175.5,-10.92132 c 0,-1.0226 -23.19745,-17.61889 -48.49996,-34.69857 -28.64465,-19.33569 -49.70337,-32.33241 -77,-47.52175 -16.09462,-8.95593 -23.94793,-13.19697 -57.04122,-30.80413 -36.8539,-19.60798 -56.60389,-30.72318 -83.28929,-46.87482 -17.54412,-10.61878 -40.04567,-26.3993 -46.90451,-32.89452 -1.77927,-1.68494 -3.42721,-2.86928 -3.6621,-2.63187 -1.55057,1.56718 -9.27338,18.66922 -12.07176,26.73276 -4.61741,13.30506 -6.2433,19.99105 -8.48725,34.90141 -2.62534,17.4446 -3.47183,37.48994 -2.12326,50.27953 1.32926,12.60632 2.74092,14.81945 14.48229,22.70447 18.29628,12.28703 47.37714,19.31032 113.0971,27.31395 76.80709,9.35386 101.5563,13.08797 153.5,23.15975 25.65126,4.97373 53.35666,10.16691 57.24996,10.73109 0.4125,0.0598 0.75,-0.11901 0.75,-0.3973 z m 188,-5.85218 c 31.7993,-4.15686 54.8975,-9.61715 77.49997,-18.32056 17.4717,-6.72771 35.3825,-17.24055 42.899,-25.17974 l 2.899,-3.06203 -2.7325,-3.5825 c -3.6073,-4.72945 -11.6284,-10.99657 -18.5136,-14.46511 -8.6306,-4.3479 -19.8416,-7.51649 -46.21647,-13.06231 -40.8781,-8.59541 -57.4631,-13.15911 -88.5565,-24.36809 -41.4039,-14.92589 -71.6368,-30.8833 -123.2789,-65.06836 -13.475,-8.91994 -25.0712,-16.5459 -25.7693,-16.94658 -1.9215,-1.10279 -9.9822,5.30433 -18.4287,14.64832 -10.43935,11.54855 -21.18324,25.21925 -36.75298,46.76513 -7.35278,10.175 -15.48519,21.425 -18.07203,25 -7.95796,10.9979 -10.34513,15.03754 -9.38657,15.88421 0.50029,0.44189 6.08462,4.34582 12.40962,8.67538 10.98868,7.52194 17.3786,12.20264 43.06889,31.54851 36.31937,27.34998 62.56047,37.12905 113.91997,42.45366 17.0353,1.76611 79.0572,1.16559 95.0111,-0.91993 z M 681.98477,456.25794 c 4.73749,-6.2273 14.58386,-19.58563 21.88084,-29.68519 18.80246,-26.024 27.87034,-37.23682 39.0726,-48.31491 l 9.78622,-9.67776 -3.0452,-1.06155 c -4.2262,-1.47325 -7.32779,-0.4992 -14.47415,4.54557 -11.20467,7.90963 -31.64814,32.39685 -63.34225,75.87149 -4.00964,5.5 -8.39352,11.49205 -9.74195,13.31568 -1.34843,1.82362 -2.29375,3.45393 -2.1007,3.62291 0.19304,0.16898 2.60099,1.69998 5.35099,3.40223 4.84908,3.00159 5.04527,3.03779 6.5,1.19944 0.825,-1.04256 5.37612,-6.99062 10.1136,-13.21791 z m -22.46918,-7.57235 c 4.30088,-5.9125 12.18532,-16.46349 17.52097,-23.44663 l 9.70119,-12.69663 -7.68329,-1.63102 c -17.93451,-3.80714 -63.87966,-17.18668 -113.18329,-32.95975 -44.49765,-14.23555 -66.1796,-20.23922 -86.5,-23.95163 -4.95,-0.90434 -9.7875,-1.80914 -10.75,-2.01067 -3.31398,-0.69391 -1.73312,1.2694 5,6.20964 24.22162,17.77193 49.83852,32.80541 111.25,65.28793 29.27996,15.48712 61.08961,32.59571 66.66231,35.85386 0.0893,0.0522 3.68122,-4.7426 7.98211,-10.6551 z m 33.92905,-44.5 c 1.63119,-1.7875 4.08197,-4.54858 5.44617,-6.13572 2.33663,-2.7185 2.35378,-2.81991 0.2961,-1.75 -7.30161,3.79651 -35.13341,-3.14395 -125.81574,-31.37489 -66.8447,-20.80988 -93.33251,-27.03983 -111.82698,-26.30175 l -7.82698,0.31236 3.32698,3.61884 c 3.21537,3.49744 3.67756,3.65932 13.77816,4.82575 12.80333,1.47854 26.69304,4.56762 47.04882,10.46367 8.525,2.46927 19.55,5.65962 24.5,7.08967 4.95,1.43005 18.45,5.69285 30,9.4729 49.12941,16.0789 94.41243,28.8633 114.5,32.32587 1.375,0.23701 2.74922,0.49221 3.05383,0.56711 0.30461,0.0749 1.88844,-1.32631 3.51964,-3.11381 z"
       id="path1" />
  </g>
</svg>
