<?xml version="1.0" encoding="UTF-8" standalone="no"?>
<!-- Created with Inkscape (http://www.inkscape.org/) -->

<svg
   version="1.1"
   id="svg1"
   width="96"
   height="96"
   viewBox="0 0 96 96"
   sodipodi:docname="astin.svg"
   inkscape:version="1.4 (86a8ad7, 2024-10-11)"
   xmlns:inkscape="http://www.inkscape.org/namespaces/inkscape"
   xmlns:sodipodi="http://sodipodi.sourceforge.net/DTD/sodipodi-0.dtd"
   xmlns="http://www.w3.org/2000/svg"
   xmlns:svg="http://www.w3.org/2000/svg">
  <defs
     id="defs1" />
  <sodipodi:namedview
     id="namedview1"
     pagecolor="#ffffff"
     bordercolor="#000000"
     borderopacity="0.25"
     inkscape:showpageshadow="2"
     inkscape:pageopacity="0.0"
     inkscape:pagecheckerboard="0"
     inkscape:deskcolor="#d1d1d1"
     inkscape:zoom="8.4895833"
     inkscape:cx="48"
     inkscape:cy="48"
     inkscape:window-width="1920"
     inkscape:window-height="1017"
     inkscape:window-x="1912"
     inkscape:window-y="-8"
     inkscape:window-maximized="1"
     inkscape:current-layer="g1" />
  <g
     inkscape:groupmode="layer"
     inkscape:label="Image"
     id="g1">
    <path
       style="fill:#000000"
       d="M 20.117792,37.333333 V -3.7423312e-7 h 5.333333 5.333334 V 17.333333 34.666667 H 48.117792 65.451125 V 17.333333 -3.7423312e-7 h 5.333334 5.333333 V 37.333333 74.666667 h -28 -28 z M 65.451125,54.666667 V 45.333333 H 48.117792 30.784459 V 54.666667 64 H 48.117792 65.451125 Z M 34.784459,55.333333 C 34.784459,52.666667 35.451125,52 38.117792,52 c 2.666667,0 3.333333,0.666667 3.333333,3.333333 0,2.666667 -0.666666,3.333334 -3.333333,3.333334 -2.666667,0 -3.333333,-0.666667 -3.333333,-3.333334 z m 10.666666,0 C 45.451125,52.666667 46.117792,52 48.784459,52 c 2.666666,0 3.333333,0.666667 3.333333,3.333333 0,2.666667 -0.666667,3.333334 -3.333333,3.333334 -2.666667,0 -3.333334,-0.666667 -3.333334,-3.333334 z m 9.333334,0 C 54.784459,52.666667 55.451125,52 58.117792,52 c 2.666667,0 3.333333,0.666667 3.333333,3.333333 0,2.666667 -0.666666,3.333334 -3.333333,3.333334 -2.666667,0 -3.333333,-0.666667 -3.333333,-3.333334 z"
       id="path1" />
  </g>
</svg>
