<?xml version="1.0" encoding="UTF-8" standalone="no"?>
<!-- Created with Inkscape (http://www.inkscape.org/) -->

<svg
   version="1.1"
   id="svg1"
   width="1024"
   height="1024"
   viewBox="0 0 1024 1024"
   sodipodi:docname="cote.svg"
   inkscape:version="1.4 (86a8ad7, 2024-10-11)"
   xmlns:inkscape="http://www.inkscape.org/namespaces/inkscape"
   xmlns:sodipodi="http://sodipodi.sourceforge.net/DTD/sodipodi-0.dtd"
   xmlns="http://www.w3.org/2000/svg"
   xmlns:svg="http://www.w3.org/2000/svg">
  <defs
     id="defs1" />
  <sodipodi:namedview
     id="namedview1"
     pagecolor="#ffffff"
     bordercolor="#000000"
     borderopacity="0.25"
     inkscape:showpageshadow="2"
     inkscape:pageopacity="0.0"
     inkscape:pagecheckerboard="0"
     inkscape:deskcolor="#d1d1d1"
     inkscape:zoom="0.79589844"
     inkscape:cx="512"
     inkscape:cy="512"
     inkscape:window-width="1920"
     inkscape:window-height="1017"
     inkscape:window-x="-8"
     inkscape:window-y="-8"
     inkscape:window-maximized="1"
     inkscape:current-layer="g1" />
  <g
     inkscape:groupmode="layer"
     inkscape:label="Image"
     id="g1">
    <path
       style="fill:#000000;stroke-width:1.35665"
       d="M 421.52377,773.40021 C 416.63746,769.52654 401.66794,757.69131 388.25818,747.0997 290.39853,669.80585 210.80023,577.29948 161.2141,483.237 c -17.96844,-34.08527 -31.6212,-67.20167 -35.66546,-86.51085 -5.10025,-24.35091 -1.72103,-27.43187 55.93611,-50.99884 15.72413,-6.42713 35.18569,-15.15289 43.24791,-19.39058 35.83499,-18.83567 71.20362,-49.82639 95.85126,-83.98686 l 7.47397,-10.35855 0.91777,18.22037 c 8.84304,175.56028 43.92599,363.60162 94.70451,507.6072 4.21547,11.95491 7.45375,21.93603 7.19617,22.18028 -0.2576,0.24423 -4.46625,-2.7253 -9.35257,-6.59896 z m 161.06326,4.84243 c 3.26666,-7.21631 23.94273,-71.324 31.91829,-98.96497 38.971,-135.06227 64.74966,-291.17934 68.65846,-415.79953 0.49566,-15.80302 1.27155,-28.69911 1.72419,-28.65798 0.45263,0.0411 3.64337,3.75658 7.09055,8.25654 17.17643,22.42225 42.64233,47.40068 64.47975,63.24548 22.7379,16.49819 37.60881,24.10199 82.01658,41.93677 40.90244,16.42699 49.69019,22.51801 50.98039,35.33606 1.9079,18.95321 -21.68896,76.84636 -51.86578,127.24918 -55.44005,92.59866 -133.65881,177.35612 -234.77519,254.40122 -20.64997,15.73413 -21.80096,16.47372 -20.22724,12.99723 z M 393.90811,418.70116 c -5.92172,-20.27146 -4.86228,-106.71873 1.3864,-113.12631 0.6397,-0.65597 5.91032,1.44992 12.02828,4.80592 39.64468,21.74698 62.66298,34.53259 64.086,35.59677 1.25389,0.93771 1.12985,2.55147 -0.5195,6.75878 -1.97428,5.0362 -2.92225,22.24915 -1.60934,29.22172 0.38131,2.02499 -2.56665,4.25402 -14.14714,10.69711 -26.30918,14.63773 -57.18304,30.99994 -58.49381,30.99994 -0.70606,0 -1.93495,-2.22927 -2.73089,-4.95393 z m 201.94005,-5.87557 c -11.11094,-5.93693 -27.5419,-14.8734 -36.51325,-19.85883 -15.67901,-8.71294 -16.25979,-9.19349 -14.97713,-12.39237 1.9451,-4.85098 1.59834,-15.79961 -0.80683,-25.47444 -1.15502,-4.64614 -1.78224,-8.74886 -1.39379,-9.11717 3.25625,-3.08756 75.5496,-40.83981 76.49295,-39.94533 2.68928,2.54997 3.85724,14.13205 4.61766,45.79089 0.95075,39.58232 -1.57005,70.08176 -5.90064,71.39288 -0.72449,0.21933 -10.40803,-4.4587 -21.51897,-10.39563 z M 488.57012,395.60852 c -3.96799,-1.99856 -6.51495,-6.44242 -9.22682,-16.09861 -2.68201,-9.54991 -2.43508,-13.14733 1.80705,-26.32721 3.01553,-9.36892 4.41813,-11.92261 7.07443,-12.88021 3.98978,-1.43833 36.57669,-1.56937 38.92007,-0.15651 2.08413,1.25656 3.91565,5.81609 7.39327,18.40543 2.61201,9.4558 2.63748,10.41866 0.5121,19.36276 -2.62592,11.05061 -5.02667,15.97566 -8.46329,17.36219 -4.84457,1.95459 -34.28489,2.21181 -38.01681,0.33216 z"
       id="path1" />
  </g>
</svg>
