<?xml version="1.0" encoding="UTF-8" standalone="no"?>
<!-- Created with Inkscape (http://www.inkscape.org/) -->

<svg
   version="1.1"
   id="svg1"
   width="120"
   height="120"
   viewBox="0 0 120 120"
   xmlns="http://www.w3.org/2000/svg"
   xmlns:svg="http://www.w3.org/2000/svg">
  <defs
     id="defs1" />
  <path
     style="display:inline;fill:#cc3733;stroke:none;stroke-width:0.132666"
     d="m 66.294095,37.62681 c 2.06973,10.02281 5.03123,19.91562 7.5142,29.84275 l 3.88098,15.51822 c 0.50612,2.02405 1.67899,4.83541 1.00936,6.89701 -0.71449,2.19968 -2.59953,4.05633 -4.01819,5.83592 -2.63379,3.30385 -5.23018,6.63775 -7.85597,9.94757 -1.17193,1.47725 -2.62745,4.33172 -4.77669,4.33172 -2.14982,0 -3.70336,-2.96636 -4.86343,-4.46435 -2.7306,-3.52598 -5.58948,-6.95228 -8.31999,-10.47814 -1.26909,-1.63875 -3.00478,-3.27251 -3.61078,-5.30535 -0.46557,-1.56178 0.24014,-3.38112 0.62191,-4.90749 0.78435,-3.13588 1.5377,-6.28053 2.32221,-9.41704 2.01426,-8.05322 4.02638,-16.11109 6.13827,-24.13946 0.78969,-3.00199 1.56765,-6.00808 2.32077,-9.01915 0.31583,-1.26272 0.91671,-2.68473 1.00722,-3.97905 0.0642,-0.9179 -1.32941,-2.07245 -1.62452,-3.05059 -0.45386,-1.50432 -0.65657,-3.21642 -1.32504,-4.64219 -0.79168,-1.68861 -2.40016,-2.94606 -3.24657,-4.64222 -1.93411,-3.87583 -0.9199,-8.95636 1.9666,-12.06973 1.14425,-1.23417 2.43253,-2.18491 3.96894,-2.876599 8.17363,-3.6798512 16.64001,3.270979 16.0445,11.763109 -0.23373,3.33307 -2.75422,5.02553 -4.01614,7.82544 -0.96914,2.1503 -0.67877,5.88272 -3.13764,7.02962 m -4.11362,-23.42657 c -4.28016,-0.21213 -7.67652,3.76973 -7.27582,7.90834 0.18183,1.87817 1.43665,5.37749 3.693,5.56296 1.83185,0.15059 3.73482,0.009 5.57329,0.009 0.73368,0 1.63462,0.15798 2.25585,-0.30743 5.60117,-4.19521 2.39295,-12.8426 -4.24632,-13.17154 m -0.26539,90.53958 h 0.26539 c 2.56554,-3.88056 5.74941,-7.48292 8.62533,-11.1413 1.07534,-1.3679 3.16104,-3.23467 3.64734,-4.90745 0.25047,-0.8616 -0.21971,-1.94568 -0.40629,-2.78533 -0.50308,-2.26408 -1.09327,-4.5218 -1.6839,-6.76438 -1.96251,-7.45148 -3.81797,-14.94038 -5.68756,-22.4152 -1.06243,-4.24772 -2.15509,-8.4853 -3.2175,-12.7329 -0.17672,-0.70657 -0.52485,-3.8071 -1.41011,-3.8071 -0.86683,0 -1.24951,3.10452 -1.4396,3.8071 -1.14341,4.22583 -2.16306,8.49248 -3.25396,12.7329 -1.97716,7.68538 -3.9138,15.38088 -5.83909,23.0784 l -1.52602,6.10118 c -0.20041,0.80125 -0.70953,1.9648 -0.45236,2.78533 0.52325,1.66947 2.49408,3.40441 3.56399,4.77482 2.90931,3.72645 6.20822,7.33198 8.81434,11.27393 z"
     id="path2" />
</svg>
